<!DOCTYPE svg PUBLIC "-//W3C//DTD SVG 1.1//EN" "http://www.w3.org/Graphics/SVG/1.1/DTD/svg11.dtd">
<!-- Uploaded to: SVG Repo, www.svgrepo.com, Transformed by: SVG Repo Mixer Tools -->
<svg fill="#000000" width="800px" height="800px" viewBox="-7.5 0 32 32" version="1.1" xmlns="http://www.w3.org/2000/svg">
<g id="SVGRepo_bgCarrier" stroke-width="0"/>
<g id="SVGRepo_tracerCarrier" stroke-linecap="round" stroke-linejoin="round"/>
<g id="SVGRepo_iconCarrier"> <title>apple</title> <path d="M5.92 27.2c-0.88 0-1.68-0.36-2.36-1.12-1.36-1.48-2.36-3.2-2.96-5.12-0.6-1.8-0.72-3.36-0.48-4.88 0.4-2.4 1.64-4.040 3.76-4.88 1.16-0.48 2.4-0.44 3.6 0.040 0.28 0.12 0.56 0.24 0.88 0.32l0.2 0.080c0.080 0.040 0.2 0.040 0.28 0.040 0.24 0 0.52-0.080 0.76-0.2l0.24-0.080c0.6-0.24 1.2-0.44 1.84-0.56 1.24-0.2 2.44 0.080 3.56 0.72 0.64 0.36 1.16 0.84 1.56 1.44 0.24 0.36 0.2 0.8-0.12 1.080-0.12 0.12-0.24 0.2-0.36 0.32-0.2 0.2-0.44 0.4-0.6 0.56-0.64 0.72-0.96 1.72-0.84 2.72s0.68 1.88 1.52 2.4c0.040 0.040 0.080 0.080 0.16 0.12l0.080 0.040c0.68 0.44 0.96 0.88 0.6 1.8-0.68 1.72-1.6 3.12-2.76 4.2-0.96 0.96-2.32 1.16-3.68 0.56-1-0.44-1.8-0.52-2.6-0.28-0.2 0.040-0.36 0.12-0.56 0.2s-0.4 0.16-0.6 0.24c-0.4 0.2-0.72 0.24-1.12 0.24zM5.64 12.56c-0.36 0-0.76 0.080-1.12 0.24-1.52 0.6-2.44 1.76-2.72 3.6-0.2 1.24-0.080 2.56 0.4 4.12 0.52 1.68 1.4 3.16 2.6 4.44 0.52 0.56 1.040 0.72 1.68 0.48 0.16-0.040 0.36-0.12 0.52-0.2 0.2-0.080 0.44-0.16 0.68-0.24 1.2-0.4 2.44-0.28 3.84 0.32 0.72 0.32 1.32 0.28 1.88-0.24 0.96-0.88 1.68-2.040 2.28-3.48 0 0 0 0-0.040 0s-0.040-0.040-0.080-0.040c-1.24-0.8-2.080-2.12-2.28-3.6-0.2-1.52 0.24-3 1.24-4.080 0.16-0.16 0.28-0.28 0.44-0.44-0.16-0.16-0.36-0.28-0.56-0.4-0.8-0.48-1.64-0.64-2.48-0.52-0.48 0.080-0.96 0.28-1.48 0.48l-0.24 0.080c-0.36 0.16-0.84 0.28-1.32 0.28-0.28 0-0.6-0.040-0.88-0.16l-0.2-0.080c-0.32-0.12-0.6-0.24-0.92-0.36-0.44-0.12-0.84-0.2-1.24-0.2zM9 10.88c-0.32 0-0.6-0.12-0.76-0.28-0.32-0.32-0.32-0.72-0.32-1.080 0-0.040 0-0.040 0-0.080 0.2-1.96 1.28-3.44 3.040-4.24 0.32-0.16 0.64-0.24 0.96-0.32l0.2-0.040c0.080-0.040 0.16-0.040 0.24-0.040 0.48 0 1 0.36 1.040 1.080 0.080 2.12-1.48 4.24-3.52 4.84l-0.080 0.040c-0.12 0.040-0.28 0.080-0.48 0.12-0.16 0-0.24 0-0.32 0zM11.68 6.68v0c-1.12 0.52-1.76 1.28-2.040 2.32 0.96-0.32 1.76-1.28 2.040-2.32z"/> </g>
</svg>