<?xml version="1.0" ?>
<!-- Uploaded to: SVG Repo, www.svgrepo.com, Generator: SVG Repo Mixer Tools -->
<svg width="800px" height="800px" viewBox="0 0 32 32" id="Camada_1" version="1.1" xml:space="preserve" xmlns="http://www.w3.org/2000/svg" xmlns:xlink="http://www.w3.org/1999/xlink">
<style type="text/css">
	.st0{fill:#FFFFFF;}
</style>
<path d="M6,2h20c2.2,0,4,1.8,4,4v20c0,2.2-1.8,4-4,4H6c-2.2,0-4-1.8-4-4V6C2,3.8,3.8,2,6,2z"/>
<g>
<g>
<path class="st0" d="M14.2,7.6c-1.1-0.9-2.4-1.6-3.8-2C11.6,6.3,12.9,7,13.8,8c-0.1,0.9-1.2,1.5-2.6,1.4c0-0.1,0.1-0.1,0.1-0.2    c-0.3-0.1-0.7,0-1-0.2c0-0.1,0.1-0.1,0.1-0.2c-0.3-0.1-0.6-0.2-0.8-0.4c0-0.1,0.2,0,0.2-0.2C9.6,8,9.3,7.9,9.1,7.7    c0.1-0.1,0.2,0,0.3-0.1C9.1,7.3,8.9,7.2,8.7,7c0.1-0.1,0.2,0,0.3-0.1C8.8,6.6,8.5,6.5,8.4,6.2c0.1,0,0.3,0.1,0.4-0.1    C8.6,5.9,8.3,5.8,8.2,5.5c0.1-0.1,0.2,0,0.3-0.1c0-0.3-0.2-0.4-0.3-0.7c0.3-0.1,0.6,0,0.8-0.1c0-0.1-0.1-0.1-0.1-0.2    c0.4-0.1,0.7,0,1,0.1c0.1-0.1-0.1-0.2,0-0.3c0.3,0,0.5,0.1,0.8,0.2c0.1-0.2-0.1-0.2-0.1-0.3c0.3,0,0.6,0.2,0.8,0.3    c0.1-0.1,0-0.2,0.1-0.3c0.3,0.1,0.4,0.3,0.6,0.4c0.2,0,0.1-0.2,0.2-0.3c0.2,0.1,0.4,0.3,0.6,0.4c0.2,0,0.1-0.2,0.2-0.3    c0.2,0.2,0.4,0.4,0.6,0.6c0.1,0,0.1-0.2,0.2-0.2c0.5,0.6,1,1.2,0.9,2.1C14.9,7.2,14.6,7.5,14.2,7.6L14.2,7.6z"/>
<path class="st0" d="M22.2,8.2c0.1,0.1,0.2,0.1,0.3,0.1c-0.3,0.2-0.6,0.3-0.9,0.4c0,0.1,0.1,0.1,0.1,0.2c-0.3,0.2-0.6,0.1-0.9,0.2    c-0.1,0.1,0.1,0.1,0,0.2c-0.3,0-0.7,0-1-0.1c-0.7-0.2-1.3-0.5-1.6-1.3c1-1,2.2-1.7,3.4-2.4c-1.4,0.5-2.6,1.1-3.8,2    c-0.5-0.2-0.8-0.6-0.8-1.1c0-0.6,0.5-1.5,1-1.9l0.1,0.2c0.3-0.2,0.4-0.5,0.6-0.6c0.1,0.1,0,0.2,0.2,0.3c0.2-0.1,0.3-0.3,0.6-0.4    c0.1,0.1,0,0.2,0.2,0.3C20,4.3,20.1,4.1,20.4,4c0,0.1-0.1,0.2,0,0.3C20.7,4.2,21,4,21.3,4c0,0.1-0.1,0.2-0.1,0.3    c0.3,0,0.5-0.2,0.8-0.2c0,0.1-0.1,0.2,0,0.3c0.3-0.1,0.7-0.2,1-0.1c0,0.1-0.1,0.1-0.1,0.3c0.3,0.1,0.6,0,0.8,0.1    c-0.1,0.3-0.3,0.4-0.3,0.7c0.1,0.1,0.2,0,0.3,0.1c-0.1,0.3-0.4,0.4-0.5,0.6c0.1,0.1,0.2,0,0.4,0.1c-0.1,0.3-0.4,0.4-0.5,0.6    c0,0.1,0.2,0.1,0.3,0.1c-0.1,0.3-0.4,0.4-0.6,0.6c0.1,0.1,0.2,0.1,0.2,0.1C22.8,7.9,22.4,8,22.2,8.2L22.2,8.2z"/>
</g>
<g>
<path class="st0" d="M15.5,15.6c0,1.5-1.1,2.9-2.6,3.3c-1.5,0.3-2.8-0.7-2.9-2.3c-0.1-1.5,1-2.9,2.4-3.3    C14.1,12.8,15.5,13.9,15.5,15.6z"/>
<path class="st0" d="M22.1,16.3c0,1.7-1.5,2.8-3.1,2.3c-1.5-0.5-2.5-2.1-2.3-3.6c0.2-1.5,1.7-2.4,3.2-1.8    C21.2,13.6,22.1,14.9,22.1,16.3L22.1,16.3z"/>
<path class="st0" d="M16.1,18.4c0.9,0,1.6,0.3,2.2,1c1,1,0.9,2.6-0.2,3.6c-1.1,0.9-2.8,1-3.9,0.1c-0.8-0.6-1.2-1.5-1-2.5    c0.2-1.1,1-1.7,2-2C15.5,18.4,15.8,18.3,16.1,18.4L16.1,18.4z"/>
<path class="st0" d="M19.1,23.2c0.1-0.8,0.4-1.7,1-2.4c0.4-0.4,0.8-0.8,1.3-1.1c0.2-0.1,0.5-0.3,0.7-0.3c0.5-0.1,0.9,0.1,1.1,0.6    c0.3,0.8,0.4,1.7,0,2.5c-0.5,1.1-1.4,1.9-2.6,2.1c-0.1,0-0.3,0-0.4,0C19.5,24.6,19.1,24.2,19.1,23.2z"/>
<path class="st0" d="M8.5,21c0,0,0-0.1,0-0.2c0.1-0.9,0.6-1.2,1.5-1c1.4,0.4,2.7,2,2.8,3.5c0,0.9-0.4,1.3-1.3,1.2    c-1.2-0.2-2-0.8-2.6-1.9C8.6,22.2,8.5,21.6,8.5,21L8.5,21z"/>
<path class="st0" d="M16.2,12.9c-0.7,0-1.3-0.1-1.9-0.4c-1.1-0.5-1.1-1.3-0.2-2c1.2-0.9,2.9-0.8,4,0.2c0.1,0.1,0.2,0.2,0.3,0.3    c0.4,0.5,0.3,1-0.2,1.4c-0.4,0.3-0.9,0.4-1.4,0.5C16.6,12.9,16.3,12.9,16.2,12.9L16.2,12.9z"/>
<path class="st0" d="M16,27.1c-1,0-1.9-0.4-2.5-1.2c-0.3-0.4-0.3-0.6,0.1-0.9c0.6-0.4,1.2-0.5,1.8-0.6c0.8-0.1,1.7-0.1,2.5,0.2    c0.2,0.1,0.4,0.1,0.6,0.2c0.5,0.3,0.5,0.5,0.2,1c0,0,0,0-0.1,0.1C17.9,26.6,17.1,27,16,27.1z"/>
<path class="st0" d="M9.2,16.2c0,0.9-0.2,1.7-0.5,2.6c-0.1,0.2-0.2,0.4-0.3,0.6c-0.2,0.3-0.4,0.3-0.7,0c-1.2-1.2-1-3.4,0.4-4.4    c0.5-0.4,0.8-0.3,1,0.4C9.2,15.6,9.2,15.9,9.2,16.2L9.2,16.2z"/>
<path class="st0" d="M25,17.4c0,0.7-0.2,1.4-0.8,1.9c-0.2,0.2-0.4,0.2-0.6,0c-0.3-0.3-0.4-0.7-0.5-1.1c-0.2-0.9-0.3-1.7-0.3-2.6    c0-0.2,0.1-0.4,0.1-0.6c0.1-0.3,0.4-0.4,0.7-0.2C24.5,15.3,25,16.3,25,17.4z"/>
<path class="st0" d="M9,13.8c0-1.1,0.2-2,1.1-2.7c0.9-0.7,1.9-0.8,2.9-0.6c0,0.3-0.1,0.4-0.3,0.6c-0.6,0.7-1.3,1.3-2,1.9    c-0.4,0.3-0.8,0.6-1.3,0.8C9.3,13.8,9.2,13.9,9,13.8z"/>
<path class="st0" d="M23.1,13.9c-0.2,0.1-0.4,0-0.6-0.1c-0.6-0.3-1.1-0.7-1.6-1.2c-0.6-0.5-1.1-1-1.6-1.5    c-0.1-0.1-0.3-0.3-0.3-0.5c0.5-0.3,2.1-0.2,3,0.6C22.8,11.8,23.3,13.2,23.1,13.9z"/>
</g>
</g>
</svg>