<?xml version="1.0" encoding="utf-8"?><svg xmlns="http://www.w3.org/2000/svg" xmlns:xlink="http://www.w3.org/1999/xlink" width="1872" height="932" preserveAspectRatio="xMidYMid" viewBox="0 0 1872 932" style="z-index:1;display:block;background-color:rgb(241, 242, 243);animation-play-state:paused" ><g transform="translate(936,466) scale(1,1) translate(-936,-466)" style="transform:matrix(1, 0, 0, 1, 0, 0);animation-play-state:paused" ><linearGradient id="lg-0.34733057010985124" x1="0" x2="1" y1="0" y2="0" style="animation-play-state:paused" ><stop stop-color="#222222" offset="0" style="animation-play-state:paused" ></stop>

  
<stop stop-color="#00d8ff" offset="1" style="animation-play-state:paused" ></stop></linearGradient>
<path d="M 0 0 L 0 805.79 Q 187.2 847.848 374.4 805.553 T 748.8 719.031 T 1123.2 498.294 T 1497.6 430.548 T 1872 452.681 L 1872 0 Z" fill="url(#lg-0.34733057010985124)" opacity="0.4" style="opacity:0.4;animation-play-state:paused" ></path>
<path d="M 0 0 L 0 832.378 Q 187.2 750.448 374.4 710.863 T 748.8 639.909 T 1123.2 616.388 T 1497.6 430.242 T 1872 411.962 L 1872 0 Z" fill="url(#lg-0.34733057010985124)" opacity="0.4" style="opacity:0.4;animation-play-state:paused" ></path>
<path d="M 0 0 L 0 929.623 Q 187.2 791.2 374.4 742.065 T 748.8 639.016 T 1123.2 607.601 T 1497.6 425.397 T 1872 425.837 L 1872 0 Z" fill="url(#lg-0.34733057010985124)" opacity="0.4" style="opacity:0.4;animation-play-state:paused" ></path>
<path d="M 0 0 L 0 789.732 Q 187.2 751.653 374.4 715.493 T 748.8 610.466 T 1123.2 615.426 T 1497.6 565.984 T 1872 371.426 L 1872 0 Z" fill="url(#lg-0.34733057010985124)" opacity="0.4" style="opacity:0.4;animation-play-state:paused" ></path>
<path d="M 0 0 L 0 863.446 Q 187.2 806.678 374.4 788.448 T 748.8 667.719 T 1123.2 577.933 T 1497.6 483.422 T 1872 409.534 L 1872 0 Z" fill="url(#lg-0.34733057010985124)" opacity="0.4" style="opacity:0.4;animation-play-state:paused" ></path></g></svg>