<svg xmlns="http://www.w3.org/2000/svg" xmlns:xlink="http://www.w3.org/1999/xlink" width="1080" zoomAndPan="magnify" viewBox="0 0 810 809.999993" height="1080" preserveAspectRatio="xMidYMid meet" version="1.0"><path fill="#a01647" d="M 199.875 753.683594 C 138.761719 717.6875 88.007812 666.09375 53.015625 604.402344 L 405 405 L 199.875 753.683594 " fill-opacity="1" fill-rule="nonzero"/><path fill="#3d8cce" d="M 809.390625 408.300781 C 808.792969 482.015625 788.550781 550.925781 753.683594 610.125 L 405 405 L 809.390625 408.300781 " fill-opacity="1" fill-rule="nonzero"/><path fill="#742594" d="M 401.699219 809.390625 C 327.984375 808.792969 259.074219 788.550781 199.875 753.683594 L 405 405 L 401.699219 809.390625 " fill-opacity="1" fill-rule="nonzero"/><path fill="#ee2423" d="M 53.015625 604.402344 C 19.117188 544.644531 0.00390625 475.414062 0.609375 401.699219 L 405 405 L 53.015625 604.402344 " fill-opacity="1" fill-rule="nonzero"/><path fill="#4053ad" d="M 753.683594 610.125 C 717.6875 671.234375 666.09375 721.988281 604.402344 756.984375 L 405 405 L 753.683594 610.125 " fill-opacity="1" fill-rule="nonzero"/><path fill="#3f2c90" d="M 604.402344 756.984375 C 544.644531 790.882812 475.414062 809.996094 401.699219 809.390625 L 405 405 L 604.402344 756.984375 " fill-opacity="1" fill-rule="nonzero"/><path fill="#bedf1e" d="M 610.125 56.316406 C 671.234375 92.3125 721.988281 143.90625 756.984375 205.597656 L 405 405 L 610.125 56.316406 " fill-opacity="1" fill-rule="nonzero"/><path fill="#57af35" d="M 405 405 L 756.984375 205.597656 C 790.882812 265.355469 809.996094 334.585938 809.390625 408.300781 L 405 405 " fill-opacity="1" fill-rule="nonzero"/><path fill="#f0401e" d="M 0.609375 401.699219 C 1.207031 327.984375 21.449219 259.074219 56.316406 199.875 L 405 405 L 0.609375 401.699219 " fill-opacity="1" fill-rule="nonzero"/><path fill="#ecee26" d="M 408.300781 0.609375 C 482.015625 1.207031 550.925781 21.449219 610.125 56.316406 L 405 405 L 408.300781 0.609375 " fill-opacity="1" fill-rule="nonzero"/><path fill="#edb10e" d="M 205.59375 53.015625 C 265.355469 19.117188 334.585938 0.00390625 408.300781 0.609375 L 405 405 L 205.59375 53.015625 " fill-opacity="1" fill-rule="nonzero"/><path fill="#f28913" d="M 56.316406 199.875 C 92.3125 138.765625 143.90625 88.011719 205.59375 53.015625 L 405 405 L 56.316406 199.875 " fill-opacity="1" fill-rule="nonzero"/></svg>