<?xml version="1.0" encoding="utf-8"?>
<!-- Uploaded to: SVG Repo, www.svgrepo.com, Generator: SVG Repo Mixer Tools -->
<svg width="800px" height="800px" viewBox="0 0 48 48" xmlns="http://www.w3.org/2000/svg">
  <title>assignment-check</title>
  <g id="Layer_2" data-name="Layer 2">
    <g id="invisible_box" data-name="invisible box">
      <rect width="48" height="48" fill="none"/>
    </g>
    <g id="icons_Q2" data-name="icons Q2">
      <path d="M19.6,31.4l-4-3.9a2.1,2.1,0,0,1-.2-2.7,1.9,1.9,0,0,1,3-.2L21,27.2l8.6-8.6a2,2,0,0,1,2.8,2.8l-10,10A1.9,1.9,0,0,1,19.6,31.4Z"/>
      <path d="M40,6H36V4a2,2,0,0,0-2-2H14a2,2,0,0,0-2,2V6H8A2,2,0,0,0,6,8V44a2,2,0,0,0,2,2H40a2,2,0,0,0,2-2V8A2,2,0,0,0,40,6ZM38,42H10V10h6V6H32v4h6Z"/>
    </g>
  </g>
</svg>