<?xml version="1.0" encoding="UTF-8"?>
<svg width="15px" height="15px" viewBox="0 0 15 15" version="1.1" xmlns="http://www.w3.org/2000/svg" xmlns:xlink="http://www.w3.org/1999/xlink">
    <!-- Generator: Sketch 63.1 (92452) - https://sketch.com -->
    <title>search-icon</title>
    <desc>Created with Sketch.</desc>
    <g id="Page-1" stroke="none" stroke-width="1" fill="none" fill-rule="evenodd">
        <g id="search-icon" fill="#7D7A9E" fill-rule="nonzero">
            <path d="M14.77125,13.6544737 L11.1396429,9.94368421 C12.0733929,8.85315789 12.585,7.48105263 12.585,6.05263158 C12.585,2.71526316 9.82125,0 6.42428571,0 C3.02732143,0 0.263571429,2.71526316 0.263571429,6.05263158 C0.263571429,9.39 3.02732143,12.1052632 6.42428571,12.1052632 C7.69955357,12.1052632 8.91482143,11.7273684 9.95383929,11.01 L13.6130357,14.7489474 C13.7659821,14.905 13.9716964,14.9910526 14.1921429,14.9910526 C14.4008036,14.9910526 14.59875,14.9128947 14.7490179,14.7707895 C15.0683036,14.4689474 15.0784821,13.9684211 14.77125,13.6544737 Z M6.42428571,1.57894737 C8.93517857,1.57894737 10.9778571,3.58578947 10.9778571,6.05263158 C10.9778571,8.51947368 8.93517857,10.5263158 6.42428571,10.5263158 C3.91339286,10.5263158 1.87071429,8.51947368 1.87071429,6.05263158 C1.87071429,3.58578947 3.91339286,1.57894737 6.42428571,1.57894737 Z"></path>
        </g>
    </g>
</svg>