<svg xmlns="http://www.w3.org/2000/svg" viewBox="0 0 2048 2048">
  <path d="M384 1075L128 939v405q0 26-19 45t-45 19q-26 0-45-19t-19-45V832q0-18 9-33t25-23l839-448q35-18 73-28t78-10q81 0 151 38l839 448q16 8 25 23t9 33q0 18-9 33t-25 23l-350 187v397q0 14-5 24t-14 21q-21 24-50 48t-62 47-66 42-61 35q-88 47-184 75t-198 28q-101 0-197-28t-185-75q-28-15-61-34t-65-43-62-47-51-48q-9-11-14-21t-5-24v-397zm640 170q47 0 90-22l734-391-734-391q-43-23-90-23t-90 23L200 832l734 391q43 22 90 22zm512 200v-302l-361 193q-35 19-73 28t-78 9q-39 0-77-9t-74-28l-361-193v302q49 45 110 84t127 70 137 47 138 18q67 0 137-17t137-48 128-69 110-85z" />
</svg>